<?xml version="1.0" encoding="UTF-8"?>
<svg width="20px" height="19px" viewBox="0 0 20 19" version="1.1" xmlns="http://www.w3.org/2000/svg" xmlns:xlink="http://www.w3.org/1999/xlink">
    <g id="Page-1" stroke="none" stroke-width="1" fill="none" fill-rule="evenodd">
        <g id="github" fill="#222222">
            <path d="M10.033074,0 C4.48143973,0 0,4.35726988 0,9.75508181 C0,14.0473178 2.87614789,17.689215 6.8893775,18.9898926 C7.42447478,19.0549265 7.5582491,18.794791 7.5582491,18.5346554 L7.5582491,16.8437746 C4.74898837,17.4290795 4.14700393,15.543097 4.14700393,15.543097 C3.67879381,14.4375211 3.00992221,14.1123517 3.00992221,14.1123517 C2.07350196,13.5270468 3.07680937,13.5270468 3.07680937,13.5270468 C4.08011677,13.5920807 4.61521405,14.502555 4.61521405,14.502555 C5.48474713,15.9983342 6.95626466,15.543097 7.5582491,15.2829615 C7.62513626,14.6326227 7.8926849,14.2424194 8.2271207,13.9822839 C6.01984441,13.7221484 3.67879381,12.876708 3.67879381,9.1697769 C3.67879381,8.12923484 4.08011677,7.21876054 4.68210121,6.56842175 C4.54832689,6.30828624 4.21389109,5.33277806 4.74898837,3.9670666 C4.74898837,3.9670666 5.61852145,3.70693109 7.49136194,4.94257479 C8.29400786,4.74747315 9.16354094,4.61740539 10.033074,4.61740539 C10.9026071,4.61740539 11.7721402,4.74747315 12.5747861,4.94257479 C14.5145138,3.70693109 15.3171597,3.9670666 15.3171597,3.9670666 C15.852257,5.33277806 15.5178212,6.30828624 15.3840468,6.56842175 C16.0529184,7.21876054 16.3873542,8.12923484 16.3873542,9.1697769 C16.3873542,12.9417419 14.0463036,13.7221484 11.8390273,13.9822839 C12.1734631,14.3074533 12.5078989,14.8927582 12.5078989,15.8032325 L12.5078989,18.4696216 C12.5078989,18.7297571 12.7085604,19.0549265 13.1767705,18.9248587 C17.1900002,17.6241811 19.9992609,13.9822839 19.9992609,9.69004793 C20.066148,4.35726988 15.5847083,0 10.033074,0 Z" id="Path"></path>
        </g>
    </g>
</svg>